<svg xmlns="http://www.w3.org/2000/svg" xmlns:xlink="http://www.w3.org/1999/xlink" width="247" height="32" viewBox="0 0 247 32">
  <defs>
    <clipPath id="clip-path">
      <rect id="長方形_122" data-name="長方形 122" width="247" height="32" transform="translate(0 0)" fill="none"/>
    </clipPath>
  </defs>
  <g id="グループ_83" data-name="グループ 83" transform="translate(0 0.19)">
    <g id="グループ_83-2" data-name="グループ 83" transform="translate(0 -0.19)" clip-path="url(#clip-path)">
      <path id="パス_369" data-name="パス 369" d="M30.061,10.77a14.64,14.64,0,0,0-1.706-3.91,13.921,13.921,0,0,0-2.691-3.171,12.312,12.312,0,0,0-3.5-2.129,9.345,9.345,0,0,0-3.8-.782A10.677,10.677,0,0,0,12.98,2.125a12.388,12.388,0,0,0-3.96,3.562A16.933,16.933,0,0,0,6.57,10.705a19.655,19.655,0,0,0-.853,5.756,18.714,18.714,0,0,0,.9,5.865,14.494,14.494,0,0,0,2.56,4.757A12.155,12.155,0,0,0,13.2,30.276a11.644,11.644,0,0,0,5.251,1.173,9.423,9.423,0,0,0,3.931-.825,12.921,12.921,0,0,0,3.545-2.172,13.146,13.146,0,0,0,2.625-3.106,11.517,11.517,0,0,0,1.466-3.627h.525l-.131,9.558h-.525a13.05,13.05,0,0,0-1.094-1.347q-.569-.608-.788-.608a3.9,3.9,0,0,0-.788.456,12.767,12.767,0,0,1-2.012,1,19.2,19.2,0,0,1-3.194.956,20.365,20.365,0,0,1-4.332.413,22.11,22.11,0,0,1-7.352-1.151,15.932,15.932,0,0,1-5.579-3.259A14.145,14.145,0,0,1,1.225,22.7,16.87,16.87,0,0,1,.109,14.463,15.746,15.746,0,0,1,.5,12.334a17.855,17.855,0,0,1,.788-2.367,16.308,16.308,0,0,1,1.29-2.5A15.642,15.642,0,0,1,4.857,4.645,14.5,14.5,0,0,1,8.051,2.277,17.892,17.892,0,0,1,12.208.648,20.56,20.56,0,0,1,17.416.04,19.647,19.647,0,0,1,22.01.517,21.089,21.089,0,0,1,25.292,1.56,12.376,12.376,0,0,1,27.3,2.6a3.826,3.826,0,0,0,.788.478.754.754,0,0,0,.328-.2c.16-.13.335-.289.525-.478s.386-.405.591-.652A9.306,9.306,0,0,0,30.105,1h.481v9.732Z" transform="translate(0 0.159)" fill="#c40450"/>
      <path id="パス_370" data-name="パス 370" d="M121.85,50.269a5.377,5.377,0,0,1-.919,1.412,3.779,3.779,0,0,1-1.335.956,4.488,4.488,0,0,1-4.332-.543,3.567,3.567,0,0,1-1.16-3.041l-.088-.043a10.65,10.65,0,0,1-.941,1.26,8.611,8.611,0,0,1-1.4,1.3,7.124,7.124,0,0,1-1.794.977,6.123,6.123,0,0,1-2.166.369,5.431,5.431,0,0,1-1.422-.2,3.381,3.381,0,0,1-1.312-.7,3.751,3.751,0,0,1-.963-1.281,4.417,4.417,0,0,1-.372-1.911,3.547,3.547,0,0,1,.984-2.346,10.966,10.966,0,0,1,2.429-2.042q1.443-.912,2.56-1.564t1.948-1.108q.83-.456,1.465-.782t1.072-.586V35.932a1.463,1.463,0,0,0-.153-.413,2.322,2.322,0,0,0-.525-.673,3.587,3.587,0,0,0-1.028-.63,4.362,4.362,0,0,0-1.706-.282,4.13,4.13,0,0,0-1.379.239,4.955,4.955,0,0,0-1.2.608,4.282,4.282,0,0,0-.831.739,1.075,1.075,0,0,0-.306.63V38.1a1.359,1.359,0,0,1-.635,1.086,2.244,2.244,0,0,1-1.379.478,1.648,1.648,0,0,1-1.2-.5,1.577,1.577,0,0,1-.5-1.152,1.815,1.815,0,0,1,.262-.956,3.377,3.377,0,0,1,.656-.782,5.061,5.061,0,0,1,.853-.609q.459-.26.809-.478,1.138-.651,2.319-1.26t2.254-1.043a20.69,20.69,0,0,1,1.969-.7,5.5,5.5,0,0,1,1.466-.261,4.191,4.191,0,0,1,2.144.586,3.561,3.561,0,0,1,1.444,1.456,2.623,2.623,0,0,1,.219,1.064q.043.76.044,1.5,0,1.564-.022,2.823t-.022,2.433q0,1.173-.022,2.412t-.022,2.715a3.575,3.575,0,0,0,.678,2.585,2.216,2.216,0,0,0,1.553.63,2.246,2.246,0,0,0,1.488-.413,2.075,2.075,0,0,0,.656-1.064h.263a4.5,4.5,0,0,1-.394,1.608M114.1,41.1a17.656,17.656,0,0,1-1.969,1.195q-1.181.63-2.3,1.368a10.194,10.194,0,0,0-1.925,1.629,2.92,2.92,0,0,0-.81,2.02,3.043,3.043,0,0,0,.788,2.042,2.586,2.586,0,0,0,2.057.913,7.071,7.071,0,0,0,2.013-.261,3.861,3.861,0,0,0,1.619-1,1.572,1.572,0,0,0,.525-1.216Z" transform="translate(-68.708 -21.065)" fill="#c40450"/>
      <path id="パス_371" data-name="パス 371" d="M176.777,35.824a1.725,1.725,0,0,1-1.313.63,2.236,2.236,0,0,1-1.116-.239,3.438,3.438,0,0,1-.722-.543,4.7,4.7,0,0,0-.657-.543,1.688,1.688,0,0,0-.963-.239,1.725,1.725,0,0,0-1.028.369,4.792,4.792,0,0,0-.941.934,7.321,7.321,0,0,0-.788,1.282q-.351.716-.613,1.368V51.355a1.055,1.055,0,0,0,.569.609,3.383,3.383,0,0,0,.985.3,9.314,9.314,0,0,0,1.138.108,6.622,6.622,0,0,1,1.028.109v.434h-9.8v-.434a5.726,5.726,0,0,0,1.728-.391,1.033,1.033,0,0,0,.722-1V36.41a1.568,1.568,0,0,0-.066-.521,1,1,0,0,0-.372-.391q-.394-.216-.919-.543a7.389,7.389,0,0,0-1.05-.543v-.261l5.732-2.215h.263l-.088,6.038h.088q.219-.521.7-1.52a13.128,13.128,0,0,1,1.226-2.02,7.65,7.65,0,0,1,1.794-1.759,4.079,4.079,0,0,1,2.407-.739,2.772,2.772,0,0,1,1.86.651,2.076,2.076,0,0,1,.766,1.651,2.279,2.279,0,0,1-.569,1.586" transform="translate(-108.17 -21.066)" fill="#c40450"/>
      <path id="パス_372" data-name="パス 372" d="M226.576,48.466a8.172,8.172,0,0,1-1.663,2.194,8.775,8.775,0,0,1-2.516,1.651,7.942,7.942,0,0,1-3.26.652,9.813,9.813,0,0,1-4.069-.826,8.857,8.857,0,0,1-3.129-2.324,10.68,10.68,0,0,1-1.991-3.519,12.972,12.972,0,0,1-.7-4.279,10.547,10.547,0,0,1,.656-3.628,10.668,10.668,0,0,1,1.86-3.237,9.4,9.4,0,0,1,2.931-2.324,8.237,8.237,0,0,1,3.829-.891,11.6,11.6,0,0,1,3.217.434,7.48,7.48,0,0,1,2.625,1.325,6.892,6.892,0,0,1,1.816,2.237,8.082,8.082,0,0,1,.832,3.172H212.967c0,.232-.015.5-.043.8s-.044.616-.044.934a11.6,11.6,0,0,0,.525,3.5,9.167,9.167,0,0,0,1.532,2.954,7.079,7.079,0,0,0,2.538,2.02,8.059,8.059,0,0,0,3.544.739,6.681,6.681,0,0,0,3.829-1.108,5.236,5.236,0,0,0,2.166-2.715l.35.087a7.982,7.982,0,0,1-.788,2.151m-5.01-14.641a3.984,3.984,0,0,0-3-1.151,3.664,3.664,0,0,0-2.21.717,8.1,8.1,0,0,0-1.706,1.673A8.46,8.46,0,0,0,213.536,37a7.952,7.952,0,0,0-.481,1.5h1.794q.787,0,1.553-.022l1.6-.043q.831-.021,1.838-.022.656,0,1.226-.043a3.419,3.419,0,0,0,1.006-.217,3.208,3.208,0,0,0,.46-.652,2.105,2.105,0,0,0,.153-.912,3.826,3.826,0,0,0-1.116-2.759" transform="translate(-139.241 -21.066)" fill="#c40450"/>
      <path id="パス_373" data-name="パス 373" d="M285.954,48.466a8.158,8.158,0,0,1-1.663,2.194,8.771,8.771,0,0,1-2.516,1.651,7.942,7.942,0,0,1-3.26.652,9.816,9.816,0,0,1-4.07-.826,8.858,8.858,0,0,1-3.129-2.324,10.674,10.674,0,0,1-1.991-3.519,12.964,12.964,0,0,1-.7-4.279,10.546,10.546,0,0,1,.656-3.628,10.659,10.659,0,0,1,1.86-3.237,9.4,9.4,0,0,1,2.931-2.324,8.239,8.239,0,0,1,3.829-.891,11.6,11.6,0,0,1,3.216.434,7.479,7.479,0,0,1,2.626,1.325,6.9,6.9,0,0,1,1.816,2.237,8.088,8.088,0,0,1,.832,3.172H272.345c0,.232-.015.5-.043.8s-.044.616-.044.934a11.61,11.61,0,0,0,.525,3.5,9.174,9.174,0,0,0,1.532,2.954,7.081,7.081,0,0,0,2.538,2.02,8.061,8.061,0,0,0,3.545.739,6.68,6.68,0,0,0,3.828-1.108,5.237,5.237,0,0,0,2.166-2.715l.35.087a7.968,7.968,0,0,1-.788,2.151m-5.01-14.641a3.984,3.984,0,0,0-3-1.151,3.665,3.665,0,0,0-2.21.717,8.118,8.118,0,0,0-1.706,1.673A8.485,8.485,0,0,0,272.914,37a7.975,7.975,0,0,0-.481,1.5h1.794q.787,0,1.553-.022l1.6-.043q.831-.021,1.838-.022.656,0,1.225-.043a3.414,3.414,0,0,0,1.006-.217,3.2,3.2,0,0,0,.46-.652,2.1,2.1,0,0,0,.153-.912,3.826,3.826,0,0,0-1.116-2.759" transform="translate(-178.753 -21.066)" fill="#c40450"/>
      <path id="パス_374" data-name="パス 374" d="M343.128,35.824a1.725,1.725,0,0,1-1.312.63,2.234,2.234,0,0,1-1.116-.239,3.44,3.44,0,0,1-.722-.543,4.7,4.7,0,0,0-.656-.543,1.689,1.689,0,0,0-.963-.239,1.727,1.727,0,0,0-1.028.369,4.782,4.782,0,0,0-.94.934,7.28,7.28,0,0,0-.788,1.282q-.351.716-.613,1.368V51.355a1.053,1.053,0,0,0,.569.609,3.381,3.381,0,0,0,.984.3,9.32,9.32,0,0,0,1.138.108,6.631,6.631,0,0,1,1.028.109v.434h-9.8v-.434a5.728,5.728,0,0,0,1.729-.391,1.033,1.033,0,0,0,.722-1V36.41a1.569,1.569,0,0,0-.066-.521,1,1,0,0,0-.372-.391q-.394-.216-.919-.543a7.354,7.354,0,0,0-1.05-.543v-.261l5.732-2.215h.263l-.088,6.038h.088q.218-.521.7-1.52a13.125,13.125,0,0,1,1.225-2.02,7.651,7.651,0,0,1,1.794-1.759,4.079,4.079,0,0,1,2.407-.739,2.773,2.773,0,0,1,1.859.651,2.075,2.075,0,0,1,.766,1.651,2.279,2.279,0,0,1-.569,1.586" transform="translate(-218.866 -21.066)" fill="#c40450"/>
      <path id="パス_375" data-name="パス 375" d="M403.322,26.2a8.069,8.069,0,0,1-1.3,2.272,9.025,9.025,0,0,1-1.8,1.671,8.456,8.456,0,0,1-1.975,1.047,13.539,13.539,0,0,1-3.815.757q-2.11.134-4.085.134H374.865v-.446A9.976,9.976,0,0,0,377,31.06a4.216,4.216,0,0,0,1.638-1.114,2.006,2.006,0,0,0,.359-.78q.135-.512.247-1.181a13.514,13.514,0,0,0,.157-1.4q.045-.735.045-1.448,0-.623.022-1.693t.045-2.34q.022-1.27.022-2.607V11.586q0-.98-.022-2.005t-.022-2.362q0-.8-.045-1.626t-.157-1.582a12.931,12.931,0,0,0-.269-1.359,1.891,1.891,0,0,0-.426-.869,3.613,3.613,0,0,0-1.347-.958,8.46,8.46,0,0,0-1.885-.379V0h15.126a25.392,25.392,0,0,1,3.254.2,13.489,13.489,0,0,1,2.984.735,8.915,8.915,0,0,1,3.771,2.585,6.563,6.563,0,0,1,1.481,4.412,6.232,6.232,0,0,1-1.907,4.745,9.928,9.928,0,0,1-4.96,2.429v.179a12.832,12.832,0,0,1,3.187.78,9.9,9.9,0,0,1,2.805,1.627,7.965,7.965,0,0,1,1.975,2.429,6.722,6.722,0,0,1,.74,3.186,8.07,8.07,0,0,1-.493,2.9M395.669,3.966a6.617,6.617,0,0,0-2.85-2.5,12.865,12.865,0,0,0-5.162-.892,14.841,14.841,0,0,0-1.706.089,6.247,6.247,0,0,0-1.167.223c-.03.178-.06.342-.09.49a4.31,4.31,0,0,0-.067.557q-.023.334-.045.824t-.068,1.292q-.045,1.561-.067,3.432t-.022,3.565v4.278h2.514q1.032,0,1.661-.044a9.153,9.153,0,0,0,6.126-2.273,6.833,6.833,0,0,0,2.087-5.08,7.046,7.046,0,0,0-1.145-3.966m2.469,17.4a8.035,8.035,0,0,0-1.167-2.094,7.685,7.685,0,0,0-1.751-1.649A8.818,8.818,0,0,0,393,16.533a10.513,10.513,0,0,0-1.953-.423A20.144,20.144,0,0,0,388.779,16h-4.354v5.57q0,1.248.022,2.295t.022,1.8q.044,1.695.157,2.785a3.526,3.526,0,0,0,.651,1.8,3.038,3.038,0,0,0,1.212.824,6.36,6.36,0,0,0,2.334.334,24.361,24.361,0,0,0,2.828-.179,8.39,8.39,0,0,0,2.963-.935,7.416,7.416,0,0,0,2.917-2.607,7.128,7.128,0,0,0,1.033-3.9,6.862,6.862,0,0,0-.427-2.429" transform="translate(-249.448 0.185)" fill="#c40450"/>
      <path id="パス_376" data-name="パス 376" d="M467.9,32.266v-.478a9.636,9.636,0,0,0,2.669-.413.991.991,0,0,0,.657-.978V5.418a1.559,1.559,0,0,0-.066-.521,1,1,0,0,0-.372-.391q-.395-.217-1.182-.673a11.728,11.728,0,0,0-1.313-.673V2.9L474.552.856h.306V30.615a.942.942,0,0,0,.2.652,1.087,1.087,0,0,0,.59.3,5.679,5.679,0,0,0,1.006.108q.612.023,1.444.108v.478Z" transform="translate(-311.357 -0.384)" fill="#c40450"/>
      <path id="パス_377" data-name="パス 377" d="M523.113,46.143a11.379,11.379,0,0,1-2.232,3.454,10.085,10.085,0,0,1-3.26,2.3,9.55,9.55,0,0,1-3.916.826,11.245,11.245,0,0,1-3.544-.609,10,10,0,0,1-5.929-5.322,11.139,11.139,0,0,1-.985-4.844,10.1,10.1,0,0,1,.766-3.866,10.482,10.482,0,0,1,13.324-5.822A10.233,10.233,0,0,1,520.6,34.2,10.056,10.056,0,0,1,523,37.411a10.269,10.269,0,0,1,.941,4.54,10.713,10.713,0,0,1-.831,4.192m-3.567-7.407a11.5,11.5,0,0,0-1.072-3.128,6.975,6.975,0,0,0-1.969-2.368,4.835,4.835,0,0,0-3.019-.934,4.144,4.144,0,0,0-2.582.869,7.539,7.539,0,0,0-1.947,2.281,11.747,11.747,0,0,0-1.225,3.171,15.517,15.517,0,0,0-.416,3.584,19.537,19.537,0,0,0,.35,3.78,10.218,10.218,0,0,0,1.138,3.15,6.3,6.3,0,0,0,2.013,2.172,5.22,5.22,0,0,0,2.932.8,4.179,4.179,0,0,0,2.866-1.021,7.719,7.719,0,0,0,1.882-2.563,13.612,13.612,0,0,0,1.05-3.324,18.3,18.3,0,0,0,.328-3.3,16.733,16.733,0,0,0-.328-3.171" transform="translate(-334.877 -20.85)" fill="#c40450"/>
      <path id="パス_378" data-name="パス 378" d="M591.656,46.143a11.374,11.374,0,0,1-2.232,3.454,10.085,10.085,0,0,1-3.26,2.3,9.55,9.55,0,0,1-3.916.826,11.244,11.244,0,0,1-3.544-.609,10,10,0,0,1-5.929-5.322,11.138,11.138,0,0,1-.985-4.844,10.1,10.1,0,0,1,.766-3.866,10.482,10.482,0,0,1,13.324-5.822,10.233,10.233,0,0,1,3.26,1.933,10.056,10.056,0,0,1,2.406,3.215,10.269,10.269,0,0,1,.941,4.54,10.714,10.714,0,0,1-.831,4.192m-3.567-7.407a11.5,11.5,0,0,0-1.072-3.128,6.975,6.975,0,0,0-1.969-2.368,4.836,4.836,0,0,0-3.019-.934,4.144,4.144,0,0,0-2.582.869,7.539,7.539,0,0,0-1.947,2.281,11.746,11.746,0,0,0-1.225,3.171,15.519,15.519,0,0,0-.416,3.584,19.54,19.54,0,0,0,.35,3.78,10.216,10.216,0,0,0,1.138,3.15,6.3,6.3,0,0,0,2.013,2.172,5.221,5.221,0,0,0,2.932.8,4.18,4.18,0,0,0,2.866-1.021,7.72,7.72,0,0,0,1.882-2.563,13.614,13.614,0,0,0,1.05-3.324,18.267,18.267,0,0,0,.329-3.3,16.7,16.7,0,0,0-.329-3.171" transform="translate(-380.488 -20.85)" fill="#c40450"/>
      <path id="パス_379" data-name="パス 379" d="M663.976,52.842v-.478a8.262,8.262,0,0,0,1.794-.282.84.84,0,0,0,.613-.891V40.113a7.757,7.757,0,0,0-.9-4.018,3.413,3.413,0,0,0-3.189-1.5,3.8,3.8,0,0,0-2.419.76,16.457,16.457,0,0,0-2.023,1.933V51.322a.707.707,0,0,0,.219.522,1.357,1.357,0,0,0,.569.326,5.376,5.376,0,0,0,.766.173c.277.043.547.08.809.109v.391h-8.576v-.478a9.989,9.989,0,0,0,1.882-.282.855.855,0,0,0,.7-.891V40.07a7.648,7.648,0,0,0-.9-4.018,3.426,3.426,0,0,0-3.173-1.455,4.2,4.2,0,0,0-2.362.608,12.128,12.128,0,0,0-2.057,1.825v14.25a1.113,1.113,0,0,0,.306.63,1.306,1.306,0,0,0,.547.283,3.538,3.538,0,0,0,.722.108,6.124,6.124,0,0,1,.831.109v.435h-8.489v-.435a5.708,5.708,0,0,0,1.728-.391,1.033,1.033,0,0,0,.722-1V36.16a1.574,1.574,0,0,0-.065-.521,1,1,0,0,0-.372-.391q-.393-.217-.919-.5a11.542,11.542,0,0,0-1.05-.5V33.9l5.732-2.042h.262v4.692l.088.043a11.04,11.04,0,0,1,1.133-1.629,8.942,8.942,0,0,1,1.614-1.52,9.87,9.87,0,0,1,1.983-1.13,5.667,5.667,0,0,1,2.245-.456,4.422,4.422,0,0,1,3.379,1.368,6.439,6.439,0,0,1,1.592,3.671h.131a10.151,10.151,0,0,1,1.094-1.673,10.842,10.842,0,0,1,1.619-1.651,8.334,8.334,0,0,1,2.035-1.238,5.786,5.786,0,0,1,2.3-.478,4.387,4.387,0,0,1,3.829,1.824,7.943,7.943,0,0,1,1.291,4.692V51.322a.658.658,0,0,0,.262.522,1.75,1.75,0,0,0,.634.326,6.074,6.074,0,0,0,.81.173c.292.043.569.08.831.109v.391Z" transform="translate(-425.642 -21.015)" fill="#c40450"/>
    </g>
  </g>
</svg>
