<svg xmlns="http://www.w3.org/2000/svg" xmlns:xlink="http://www.w3.org/1999/xlink" width="1095" height="142" viewBox="0 0 1095 142">
  <defs>
    <clipPath id="clip-path">
      <rect id="長方形_123" data-name="長方形 123" width="1095" height="142" transform="translate(-0.281 -0.092)" fill="none"/>
    </clipPath>
  </defs>
  <g id="グループ_84" data-name="グループ 84" transform="translate(0.281 -0.277)">
    <g id="グループ_84-2" data-name="グループ 84" transform="translate(0 0.369)" clip-path="url(#clip-path)">
      <path id="パス_380" data-name="パス 380" d="M133.181,47.578a64.859,64.859,0,0,0-7.559-17.321A61.674,61.674,0,0,0,113.7,16.207a54.545,54.545,0,0,0-15.51-9.431A41.4,41.4,0,0,0,81.352,3.311,47.3,47.3,0,0,0,57.507,9.277,54.883,54.883,0,0,0,39.964,25.06,75.017,75.017,0,0,0,29.106,47.29a87.079,87.079,0,0,0-3.778,25.5A82.908,82.908,0,0,0,29.3,98.775a64.211,64.211,0,0,0,11.341,21.076A53.85,53.85,0,0,0,58.477,134a51.587,51.587,0,0,0,23.264,5.2,41.746,41.746,0,0,0,17.418-3.655,57.242,57.242,0,0,0,15.7-9.624,58.241,58.241,0,0,0,11.631-13.762,51.025,51.025,0,0,0,6.5-16.07h2.326l-.583,42.344h-2.326a57.811,57.811,0,0,0-4.847-5.967q-2.519-2.695-3.489-2.695a17.3,17.3,0,0,0-3.491,2.022,56.557,56.557,0,0,1-8.916,4.426,85.086,85.086,0,0,1-14.152,4.235,90.224,90.224,0,0,1-19.192,1.829,97.953,97.953,0,0,1-32.57-5.1,70.583,70.583,0,0,1-24.716-14.437A62.666,62.666,0,0,1,5.426,100.41,74.737,74.737,0,0,1,.483,63.939a69.76,69.76,0,0,1,1.745-9.431A79.1,79.1,0,0,1,5.718,44.019a72.25,72.25,0,0,1,5.717-11.068A69.3,69.3,0,0,1,21.516,20.44,64.237,64.237,0,0,1,35.668,9.952,79.265,79.265,0,0,1,54.086,2.733,91.089,91.089,0,0,1,77.156.04,87.044,87.044,0,0,1,97.511,2.155a93.43,93.43,0,0,1,14.539,4.62,54.83,54.83,0,0,1,8.917,4.62,16.95,16.95,0,0,0,3.489,2.117,3.342,3.342,0,0,0,1.454-.867c.71-.578,1.485-1.281,2.327-2.117s1.712-1.8,2.616-2.887a41.221,41.221,0,0,0,2.521-3.368h2.133V47.387Z" transform="translate(0 -0.366)" fill="#fff"/>
      <path id="パス_381" data-name="パス 381" d="M185.643,113.158a23.821,23.821,0,0,1-4.07,6.255,16.744,16.744,0,0,1-5.913,4.235,19.881,19.881,0,0,1-19.192-2.407q-5.138-3.846-5.137-13.472l-.388-.193a47.172,47.172,0,0,1-4.168,5.582,38.149,38.149,0,0,1-6.2,5.775,31.561,31.561,0,0,1-7.948,4.33,27.128,27.128,0,0,1-9.6,1.636,24.06,24.06,0,0,1-6.3-.866,14.98,14.98,0,0,1-5.815-3.082,16.618,16.618,0,0,1-4.266-5.677A19.566,19.566,0,0,1,105,106.807q0-5.387,4.361-10.393a48.583,48.583,0,0,1,10.761-9.047q6.394-4.04,11.34-6.928t8.628-4.909q3.677-2.019,6.492-3.464t4.751-2.6V49.642a6.481,6.481,0,0,0-.679-1.828,10.288,10.288,0,0,0-2.326-2.984,15.889,15.889,0,0,0-4.556-2.79,19.323,19.323,0,0,0-7.559-1.251,18.3,18.3,0,0,0-6.108,1.058,21.952,21.952,0,0,0-5.332,2.693,18.972,18.972,0,0,0-3.683,3.273,4.761,4.761,0,0,0-1.355,2.791v8.661q0,2.7-2.812,4.813a9.941,9.941,0,0,1-6.108,2.117,7.3,7.3,0,0,1-5.332-2.213,6.987,6.987,0,0,1-2.228-5.1,8.042,8.042,0,0,1,1.162-4.235,14.961,14.961,0,0,1,2.908-3.462,22.419,22.419,0,0,1,3.781-2.7q2.034-1.154,3.585-2.117,5.04-2.886,10.275-5.581t9.986-4.62a91.666,91.666,0,0,1,8.721-3.08,24.388,24.388,0,0,1,6.5-1.155,18.566,18.566,0,0,1,9.5,2.6,15.778,15.778,0,0,1,6.4,6.449,11.62,11.62,0,0,1,.969,4.715q.191,3.368.194,6.64,0,6.928-.1,12.508t-.1,10.779q0,5.2-.1,10.684t-.1,12.028q0,8.66,3,11.452a9.818,9.818,0,0,0,6.882,2.791q4.458,0,6.591-1.829a9.192,9.192,0,0,0,2.908-4.715h1.164a19.923,19.923,0,0,1-1.746,7.122M151.33,72.546a78.223,78.223,0,0,1-8.724,5.293q-5.234,2.793-10.177,6.062a45.165,45.165,0,0,0-8.53,7.218,12.935,12.935,0,0,0-3.587,8.95,13.483,13.483,0,0,0,3.491,9.045,11.458,11.458,0,0,0,9.111,4.044A31.327,31.327,0,0,0,141.831,112,17.1,17.1,0,0,0,149,107.576a6.965,6.965,0,0,0,2.327-5.389Z" transform="translate(49.791 15.014)" fill="#fff"/>
      <path id="パス_382" data-name="パス 382" d="M225.561,49.161a7.642,7.642,0,0,1-5.816,2.791,9.906,9.906,0,0,1-4.943-1.058,15.226,15.226,0,0,1-3.2-2.407,20.832,20.832,0,0,0-2.91-2.4,7.477,7.477,0,0,0-4.264-1.06,7.643,7.643,0,0,0-4.555,1.635,21.231,21.231,0,0,0-4.168,4.14,32.431,32.431,0,0,0-3.489,5.678q-1.554,3.173-2.714,6.062v55.431a4.674,4.674,0,0,0,2.52,2.7,14.985,14.985,0,0,0,4.362,1.346,41.267,41.267,0,0,0,5.04.48,29.34,29.34,0,0,1,4.556.482V124.9H162.556v-1.924a25.368,25.368,0,0,0,7.657-1.731,4.577,4.577,0,0,0,3.2-4.426V51.759a6.947,6.947,0,0,0-.292-2.309,4.446,4.446,0,0,0-1.648-1.733q-1.745-.958-4.07-2.406A32.743,32.743,0,0,0,162.75,42.9V41.75l25.395-9.814h1.164l-.388,26.751h.388q.969-2.308,3.1-6.735A58.167,58.167,0,0,1,197.839,43a33.892,33.892,0,0,1,7.948-7.792,18.07,18.07,0,0,1,10.663-3.273,12.282,12.282,0,0,1,8.238,2.886,9.2,9.2,0,0,1,3.394,7.313,10.1,10.1,0,0,1-2.521,7.026" transform="translate(78.389 15.015)" fill="#fff"/>
      <path id="パス_383" data-name="パス 383" d="M286.017,105.17a36.2,36.2,0,0,1-7.367,9.719A38.879,38.879,0,0,1,267.5,122.2a35.186,35.186,0,0,1-14.443,2.887,43.476,43.476,0,0,1-18.028-3.658,39.239,39.239,0,0,1-13.862-10.3,47.316,47.316,0,0,1-8.821-15.59,57.472,57.472,0,0,1-3.1-18.958,46.725,46.725,0,0,1,2.907-16.072A47.26,47.26,0,0,1,220.4,46.177a41.626,41.626,0,0,1,12.987-10.3,36.492,36.492,0,0,1,16.963-3.946A51.387,51.387,0,0,1,264.6,33.86a33.138,33.138,0,0,1,11.631,5.87,30.535,30.535,0,0,1,8.044,9.912,35.8,35.8,0,0,1,3.685,14.051H225.724c0,1.029-.067,2.213-.191,3.56s-.194,2.727-.194,4.138a51.39,51.39,0,0,0,2.326,15.494,40.614,40.614,0,0,0,6.786,13.088,31.36,31.36,0,0,0,11.244,8.95,35.7,35.7,0,0,0,15.7,3.273,29.6,29.6,0,0,0,16.963-4.909q7.268-4.909,9.6-12.028l1.552.384a35.363,35.363,0,0,1-3.491,9.528m-22.2-64.862q-4.943-5.1-13.281-5.1a16.232,16.232,0,0,0-9.79,3.175,35.893,35.893,0,0,0-7.559,7.411,37.48,37.48,0,0,0-4.945,8.564A35.235,35.235,0,0,0,226.113,61h7.949q3.488,0,6.882-.1l7.076-.193q3.68-.093,8.142-.1,2.908,0,5.429-.193a15.147,15.147,0,0,0,4.457-.96,14.211,14.211,0,0,0,2.037-2.889,9.328,9.328,0,0,0,.679-4.041,16.949,16.949,0,0,0-4.943-12.222" transform="translate(100.905 15.015)" fill="#fff"/>
      <path id="パス_384" data-name="パス 384" d="M345.393,105.17a36.141,36.141,0,0,1-7.367,9.719,38.859,38.859,0,0,1-11.148,7.315,35.184,35.184,0,0,1-14.441,2.887,43.488,43.488,0,0,1-18.03-3.658,39.247,39.247,0,0,1-13.86-10.3,47.291,47.291,0,0,1-8.821-15.59,57.433,57.433,0,0,1-3.1-18.958,46.724,46.724,0,0,1,2.907-16.072,47.224,47.224,0,0,1,8.24-14.339,41.659,41.659,0,0,1,12.987-10.3,36.5,36.5,0,0,1,16.964-3.946,51.384,51.384,0,0,1,14.249,1.924A33.133,33.133,0,0,1,335.6,39.73a30.554,30.554,0,0,1,8.044,9.912,35.831,35.831,0,0,1,3.685,14.051H285.1c0,1.029-.067,2.213-.193,3.56s-.194,2.727-.194,4.138a51.436,51.436,0,0,0,2.326,15.494,40.644,40.644,0,0,0,6.786,13.088,31.374,31.374,0,0,0,11.244,8.95,35.711,35.711,0,0,0,15.7,3.273,29.593,29.593,0,0,0,16.961-4.909q7.27-4.909,9.6-12.028l1.55.384a35.311,35.311,0,0,1-3.491,9.528M323.2,40.308q-4.942-5.1-13.279-5.1a16.236,16.236,0,0,0-9.792,3.175,35.965,35.965,0,0,0-7.559,7.411,37.591,37.591,0,0,0-4.945,8.564A35.322,35.322,0,0,0,285.491,61h7.949q3.488,0,6.88-.1l7.076-.193q3.682-.093,8.142-.1,2.908,0,5.429-.193a15.125,15.125,0,0,0,4.457-.96,14.156,14.156,0,0,0,2.037-2.889,9.306,9.306,0,0,0,.679-4.041A16.949,16.949,0,0,0,323.2,40.308" transform="translate(129.538 15.015)" fill="#fff"/>
      <path id="パス_385" data-name="パス 385" d="M391.912,49.161a7.641,7.641,0,0,1-5.815,2.791,9.9,9.9,0,0,1-4.943-1.058,15.237,15.237,0,0,1-3.2-2.407,20.824,20.824,0,0,0-2.908-2.4,7.482,7.482,0,0,0-4.266-1.06,7.65,7.65,0,0,0-4.555,1.635,21.186,21.186,0,0,0-4.167,4.14,32.251,32.251,0,0,0-3.489,5.678q-1.556,3.173-2.714,6.062v55.431a4.665,4.665,0,0,0,2.52,2.7,14.975,14.975,0,0,0,4.361,1.346,41.292,41.292,0,0,0,5.041.48,29.38,29.38,0,0,1,4.556.482V124.9H328.907v-1.924a25.378,25.378,0,0,0,7.659-1.731,4.577,4.577,0,0,0,3.2-4.426V51.759a6.956,6.956,0,0,0-.29-2.309,4.447,4.447,0,0,0-1.648-1.733q-1.748-.958-4.072-2.406A32.583,32.583,0,0,0,329.1,42.9V41.75l25.4-9.814h1.164l-.388,26.751h.388q.967-2.308,3.1-6.735A58.148,58.148,0,0,1,364.19,43a33.9,33.9,0,0,1,7.949-7.792A18.07,18.07,0,0,1,382.8,31.936a12.284,12.284,0,0,1,8.238,2.886,9.194,9.194,0,0,1,3.393,7.313,10.1,10.1,0,0,1-2.521,7.026" transform="translate(158.607 15.015)" fill="#fff"/>
      <path id="パス_386" data-name="パス 386" d="M500.936,116.085a35.746,35.746,0,0,1-5.767,10.067,39.982,39.982,0,0,1-7.954,7.4,37.467,37.467,0,0,1-8.75,4.639,59.984,59.984,0,0,1-16.9,3.356q-9.349.594-18.1.593h-68.6V140.17a44.194,44.194,0,0,0,9.445-2.566,18.677,18.677,0,0,0,7.258-4.936,8.887,8.887,0,0,0,1.59-3.455q.6-2.268,1.092-5.232a59.873,59.873,0,0,0,.7-6.218q.2-3.257.2-6.417,0-2.761.1-7.5t.2-10.365q.1-5.627.1-11.548v-30.6q0-4.34-.1-8.884t-.1-10.463q0-3.553-.2-7.205t-.7-7.008a57.331,57.331,0,0,0-1.193-6.022A8.378,8.378,0,0,0,391.37,7.9,16.007,16.007,0,0,0,385.4,3.654a37.481,37.481,0,0,0-8.352-1.679V0h67.013a112.493,112.493,0,0,1,14.418.888A59.762,59.762,0,0,1,471.7,4.146a39.5,39.5,0,0,1,16.7,11.452q6.561,7.7,6.562,19.545,0,13.029-8.45,21.024T464.546,66.925v.792a56.851,56.851,0,0,1,14.118,3.454,43.879,43.879,0,0,1,12.428,7.207,35.287,35.287,0,0,1,8.75,10.759,29.783,29.783,0,0,1,3.28,14.115,35.749,35.749,0,0,1-2.186,12.833m-33.9-98.513A29.316,29.316,0,0,0,454.4,6.516q-8.947-3.946-22.868-3.95a65.75,65.75,0,0,0-7.556.4,27.673,27.673,0,0,0-5.17.989c-.133.789-.267,1.513-.4,2.17a19.149,19.149,0,0,0-.3,2.468q-.1,1.481-.2,3.652t-.3,5.724q-.2,6.915-.3,15.2t-.1,15.793V67.914h11.136q4.571,0,7.358-.2,17.9-.987,27.141-10.069A30.273,30.273,0,0,0,472.1,35.142a31.215,31.215,0,0,0-5.071-17.57m10.937,77.092a35.6,35.6,0,0,0-5.17-9.277,34.04,34.04,0,0,0-7.756-7.306,39.068,39.068,0,0,0-9.842-4.837,46.578,46.578,0,0,0-8.65-1.875,89.248,89.248,0,0,0-10.042-.494H417.22V95.553q0,5.529.1,10.167t.1,8q.2,7.508.7,12.34a15.623,15.623,0,0,0,2.883,8,13.462,13.462,0,0,0,5.369,3.652q3.58,1.479,10.34,1.481a107.925,107.925,0,0,0,12.528-.792,37.168,37.168,0,0,0,13.125-4.144A32.855,32.855,0,0,0,475.283,122.7a31.58,31.58,0,0,0,4.576-17.275,30.4,30.4,0,0,0-1.89-10.759" transform="translate(180.769 -0.386)" fill="#fff"/>
      <path id="パス_387" data-name="パス 387" d="M467.9,140.012v-2.118q8.915-.578,11.825-1.828a4.391,4.391,0,0,0,2.91-4.331V21.066a6.91,6.91,0,0,0-.292-2.309,4.452,4.452,0,0,0-1.647-1.733q-1.748-.96-5.235-2.984a51.978,51.978,0,0,0-5.816-2.984V9.9L497.368.856h1.358V132.7a4.174,4.174,0,0,0,.873,2.889,4.817,4.817,0,0,0,2.616,1.347,25.16,25.16,0,0,0,4.459.48q2.713.1,6.4.48v2.118Z" transform="translate(225.634 0.027)" fill="#fff"/>
      <path id="パス_388" data-name="パス 388" d="M591.26,95.991a50.412,50.412,0,0,1-9.886,15.3,44.68,44.68,0,0,1-14.443,10.2,42.309,42.309,0,0,1-17.351,3.658,49.816,49.816,0,0,1-15.7-2.7,44.293,44.293,0,0,1-26.268-23.576q-4.362-9.14-4.362-21.461a44.725,44.725,0,0,1,3.393-17.129A46.439,46.439,0,0,1,565.669,34.5a45.334,45.334,0,0,1,14.444,8.566,44.552,44.552,0,0,1,10.662,14.243,45.5,45.5,0,0,1,4.168,20.112,47.462,47.462,0,0,1-3.683,18.574m-15.8-32.816a50.965,50.965,0,0,0-4.749-13.857,30.9,30.9,0,0,0-8.724-10.49A21.421,21.421,0,0,0,548.61,34.69a18.359,18.359,0,0,0-11.438,3.849,33.4,33.4,0,0,0-8.627,10.106,52.047,52.047,0,0,0-5.428,14.05,68.754,68.754,0,0,0-1.842,15.878,86.564,86.564,0,0,0,1.552,16.745,45.272,45.272,0,0,0,5.04,13.955,27.905,27.905,0,0,0,8.919,9.623,23.127,23.127,0,0,0,12.989,3.56,18.517,18.517,0,0,0,12.7-4.522,34.2,34.2,0,0,0,8.336-11.355,60.32,60.32,0,0,0,4.653-14.724,81.077,81.077,0,0,0,1.456-14.628,74.136,74.136,0,0,0-1.456-14.05" transform="translate(242.678 14.858)" fill="#fff"/>
      <path id="パス_389" data-name="パス 389" d="M659.8,95.991a50.387,50.387,0,0,1-9.887,15.3,44.68,44.68,0,0,1-14.443,10.2,42.311,42.311,0,0,1-17.351,3.658,49.815,49.815,0,0,1-15.7-2.7,44.292,44.292,0,0,1-26.268-23.576q-4.362-9.14-4.362-21.461a44.725,44.725,0,0,1,3.393-17.129A46.439,46.439,0,0,1,634.212,34.5a45.331,45.331,0,0,1,14.444,8.566,44.549,44.549,0,0,1,10.662,14.243,45.494,45.494,0,0,1,4.168,20.112A47.466,47.466,0,0,1,659.8,95.991M644,63.175a50.965,50.965,0,0,0-4.749-13.857,30.9,30.9,0,0,0-8.724-10.49,21.421,21.421,0,0,0-13.376-4.138,18.359,18.359,0,0,0-11.438,3.849,33.4,33.4,0,0,0-8.627,10.106,52.055,52.055,0,0,0-5.428,14.05,68.754,68.754,0,0,0-1.842,15.878,86.569,86.569,0,0,0,1.552,16.745,45.272,45.272,0,0,0,5.04,13.955,27.919,27.919,0,0,0,8.919,9.623,23.127,23.127,0,0,0,12.989,3.56,18.517,18.517,0,0,0,12.7-4.522,34.2,34.2,0,0,0,8.336-11.355A60.317,60.317,0,0,0,644,91.853a80.94,80.94,0,0,0,1.456-14.628A74.012,74.012,0,0,0,644,63.175" transform="translate(275.732 14.858)" fill="#fff"/>
      <path id="パス_390" data-name="パス 390" d="M747.433,124.821V122.7a36.6,36.6,0,0,0,7.948-1.25,3.722,3.722,0,0,0,2.714-3.947V68.427q0-11.159-4-17.8t-14.127-6.639a16.814,16.814,0,0,0-10.716,3.368,72.854,72.854,0,0,0-8.964,8.564v62.167a3.131,3.131,0,0,0,.971,2.311,6.013,6.013,0,0,0,2.52,1.444,23.829,23.829,0,0,0,3.393.768c1.227.193,2.423.356,3.586.482v1.733h-38V122.7a44.255,44.255,0,0,0,8.336-1.25,3.787,3.787,0,0,0,3.1-3.947V68.234q0-11.352-3.974-17.8t-14.056-6.446a18.627,18.627,0,0,0-10.466,2.693,53.741,53.741,0,0,0-9.113,8.084v63.129a4.931,4.931,0,0,0,1.356,2.791,5.784,5.784,0,0,0,2.425,1.252,15.677,15.677,0,0,0,3.2.479,27.141,27.141,0,0,1,3.683.482v1.925h-37.61V122.9a25.288,25.288,0,0,0,7.657-1.731,4.577,4.577,0,0,0,3.2-4.427V50.913a6.965,6.965,0,0,0-.289-2.309,4.451,4.451,0,0,0-1.65-1.733q-1.743-.96-4.07-2.213a51.083,51.083,0,0,0-4.653-2.213v-1.54l25.4-9.046H666.4V52.646l.388.193a48.952,48.952,0,0,1,5.019-7.218,39.639,39.639,0,0,1,7.149-6.735,43.729,43.729,0,0,1,8.787-5.005,25.1,25.1,0,0,1,9.947-2.02q9.271,0,14.971,6.062t7.052,16.264h.58a44.949,44.949,0,0,1,4.848-7.411,48.028,48.028,0,0,1,7.172-7.315,36.912,36.912,0,0,1,9.015-5.484A25.636,25.636,0,0,1,751.5,31.859q11.241,0,16.963,8.083t5.72,20.788v57.355a2.914,2.914,0,0,0,1.162,2.311,7.757,7.757,0,0,0,2.81,1.444,26.9,26.9,0,0,0,3.587.768c1.291.193,2.521.356,3.683.482v1.733Z" transform="translate(308.454 14.978)" fill="#fff"/>
    </g>
  </g>
</svg>
